<?xml version="1.0" encoding="iso-8859-1"?>
<!-- Generator: Adobe Illustrator 19.0.0, SVG Export Plug-In . SVG Version: 6.00 Build 0)  -->
<svg version="1.1" id="Capa_1" xmlns="http://www.w3.org/2000/svg" xmlns:xlink="http://www.w3.org/1999/xlink" x="0px" y="0px"
	 viewBox="0 0 512 512" style="enable-background:new 0 0 512 512;" xml:space="preserve">
<g>
	<g>
		<g>
			<path d="M120.437,236.05c0,4.025,3.263,7.287,7.288,7.287c4.025,0,7.287-3.262,7.287-7.287c0-6.757,5.497-12.255,12.255-12.255
				c6.757,0,12.254,5.498,12.254,12.255c0,4.025,3.263,7.287,7.287,7.287c4.024,0,7.287-3.262,7.287-7.287
				c0-14.794-12.035-26.829-26.829-26.829S120.437,221.256,120.437,236.05z" fill="#323232" />
			<path d="M337.905,236.05c0,4.025,3.262,7.287,7.287,7.287c4.025,0,7.287-3.262,7.287-7.287c0-6.757,5.498-12.255,12.255-12.255
				s12.255,5.498,12.255,12.255c0,4.025,3.262,7.287,7.287,7.287c4.025,0,7.287-3.262,7.287-7.287
				c0-14.794-12.035-26.829-26.829-26.829S337.905,221.256,337.905,236.05z" fill="#323232"/>
			<path d="M458.246,233.887c-4.025,0-7.287,3.262-7.287,7.287v8.297c0,24.329-10.11,47.9-27.738,64.668
				c-14.136,13.446-23.67,30.659-27.572,49.777c-7.663,37.554-31.755,68.856-66.097,85.876l-27.572,13.665
				c-0.585,0.29-1.178,0.566-1.769,0.845c7.48-3.585,14.04-8.107,19.307-13.44c1.119-0.323,2.219-0.691,3.308-1.081
				c8.157-2.916,15.442-7.681,21.323-13.862c0.147-0.153,0.292-0.309,0.436-0.464c0.343-0.369,0.686-0.737,1.018-1.115
				c0.451-0.511,0.893-1.034,1.327-1.564c0.204-0.251,0.402-0.507,0.603-0.762c0.337-0.428,0.668-0.861,0.993-1.301
				c0.162-0.22,0.326-0.438,0.485-0.661c0.466-0.65,0.92-1.311,1.359-1.986c0.084-0.13,0.164-0.263,0.247-0.394
				c0.375-0.588,0.74-1.185,1.095-1.791c0.116-0.198,0.231-0.396,0.345-0.595c0.415-0.731,0.821-1.469,1.206-2.225
				c0.445-0.874,0.868-1.744,1.278-2.611c0.086-0.181,0.17-0.361,0.254-0.542c0.115-0.247,0.225-0.493,0.337-0.74
				c0.196-0.43,0.389-0.859,0.576-1.287c0.157-0.357,0.31-0.713,0.461-1.069c0.173-0.408,0.34-0.814,0.505-1.221
				c0.03-0.074,0.059-0.149,0.089-0.223c0.17-0.421,0.341-0.842,0.502-1.262c0.062-0.16,0.121-0.32,0.181-0.48
				c0.175-0.462,0.345-0.923,0.51-1.382c0.168-0.469,0.327-0.936,0.484-1.403c0.192-0.566,0.384-1.132,0.56-1.694
				c0.104-0.332,0.195-0.662,0.294-0.992c0.704-2.364,1.271-4.694,1.698-6.989c0.023-0.127,0.051-0.255,0.074-0.381
				c0.134-0.747,0.247-1.489,0.352-2.228c0.026-0.184,0.053-0.368,0.078-0.552c0.096-0.732,0.178-1.46,0.245-2.185
				c0.016-0.168,0.029-0.336,0.043-0.503c0.063-0.75,0.115-1.496,0.147-2.237c0.003-0.077,0.004-0.153,0.007-0.231
				c0.08-2.082,0.034-4.13-0.133-6.146c-0.021-0.258-0.044-0.515-0.069-0.771c-0.009-0.09-0.015-0.181-0.024-0.27
				c-0.007-0.07-0.011-0.141-0.019-0.211c-0.036-0.33-0.075-0.66-0.118-0.989c-0.046-0.357-0.103-0.711-0.157-1.065
				c-0.028-0.182-0.053-0.364-0.083-0.545c-0.029-0.179-0.054-0.359-0.086-0.537c-0.047-0.263-0.102-0.524-0.153-0.786
				c-0.059-0.306-0.114-0.613-0.179-0.918c1.306-10.316,0.489-20.662-2.432-30.772c-5.546-19.198-13.343-34.14-23.173-44.412
				c-12.655-13.223-28.538-38.949-45.932-74.396c-6.526-13.299-19.316-21.561-33.377-21.561c-14.062,0-26.851,8.262-33.377,21.561
				c-17.395,35.449-33.278,61.174-45.932,74.396c-9.83,10.271-17.626,25.212-23.173,44.412c-2.921,10.11-3.738,20.455-2.432,30.773
				c-0.057,0.264-0.104,0.532-0.156,0.798c-0.064,0.32-0.131,0.639-0.188,0.961c-0.028,0.158-0.048,0.319-0.074,0.478
				c-0.03,0.184-0.056,0.37-0.084,0.555c-0.05,0.333-0.106,0.664-0.15,0.999c-0.072,0.549-0.128,1.102-0.182,1.656
				c-0.016,0.173-0.032,0.347-0.047,0.52c-0.248,2.885-0.241,5.839,0.019,8.859c0.008,0.098,0.016,0.195,0.025,0.294
				c0.071,0.782,0.159,1.568,0.265,2.358c0.015,0.111,0.031,0.223,0.047,0.334c0.112,0.806,0.236,1.614,0.383,2.429
				c0.003,0.014,0.006,0.028,0.008,0.042c0.451,2.488,1.069,5.019,1.847,7.588c0.06,0.198,0.114,0.395,0.176,0.594
				c0.2,0.641,0.418,1.287,0.639,1.934c0.129,0.379,0.257,0.757,0.393,1.138c0.189,0.529,0.385,1.06,0.588,1.592
				c0.044,0.116,0.088,0.231,0.132,0.346c0.153,0.397,0.313,0.796,0.474,1.195c0.218,0.542,0.438,1.085,0.671,1.63
				c0.139,0.328,0.283,0.657,0.427,0.985c0.164,0.374,0.33,0.748,0.501,1.122c0.148,0.325,0.293,0.65,0.446,0.977
				c0.072,0.154,0.145,0.307,0.218,0.461c0.336,0.709,0.685,1.421,1.043,2.135c0.079,0.158,0.148,0.313,0.229,0.471
				c0.863,1.696,1.806,3.326,2.819,4.892c0.08,0.124,0.168,0.242,0.249,0.365c0.423,0.642,0.852,1.279,1.299,1.898
				c0.265,0.368,0.546,0.722,0.82,1.082c0.271,0.356,0.535,0.719,0.814,1.067c0.445,0.557,0.908,1.098,1.374,1.636
				c0.112,0.13,0.22,0.265,0.334,0.393c1.237,1.403,2.543,2.74,3.913,4.006c6.232,5.757,13.783,10.056,22.125,12.46
				c5.265,5.33,11.821,9.851,19.296,13.435c-0.587-0.277-1.176-0.551-1.758-0.839l-27.572-13.665
				c-23.126-11.461-41.791-29.547-53.978-52.303c-1.9-3.549-6.318-4.883-9.864-2.983c-3.548,1.9-4.883,6.317-2.983,9.864
				c13.626,25.443,34.497,45.665,60.354,58.48l27.572,13.665c16.213,8.036,34.35,12.284,52.447,12.284
				c18.096,0,36.233-4.248,52.451-12.285l27.572-13.665c18.707-9.271,35.326-22.917,48.06-39.462
				c12.735-16.545,21.672-36.103,25.846-56.559c3.302-16.181,11.372-30.749,23.336-42.13c20.507-19.508,32.268-46.927,32.268-75.229
				v-8.297C465.534,237.15,462.271,233.887,458.246,233.887z M345.787,402.35c-0.034,0.13-0.066,0.259-0.102,0.389
				c-0.113,0.416-0.233,0.835-0.357,1.254c-0.015,0.05-0.029,0.1-0.044,0.15c-0.088,0.292-0.18,0.586-0.273,0.88
				c-0.061,0.195-0.121,0.389-0.185,0.585c-0.092,0.28-0.186,0.561-0.282,0.842c-0.027,0.078-0.055,0.157-0.082,0.236
				c-0.138,0.398-0.28,0.798-0.428,1.2c-0.133,0.362-0.267,0.723-0.408,1.087c-0.181,0.468-0.373,0.939-0.568,1.411
				c-0.144,0.349-0.284,0.696-0.434,1.048c-0.225,0.525-0.465,1.054-0.706,1.584c-0.094,0.207-0.184,0.412-0.281,0.62
				c-0.074,0.16-0.149,0.32-0.225,0.481c-0.335,0.709-0.681,1.422-1.044,2.14c-0.016,0.031-0.03,0.062-0.046,0.093
				c-0.018,0.035-0.034,0.07-0.052,0.105c-0.324,0.636-0.664,1.262-1.02,1.876c-0.085,0.148-0.178,0.289-0.265,0.436
				c-0.272,0.457-0.547,0.912-0.836,1.356c-0.136,0.208-0.279,0.409-0.419,0.614c-0.249,0.368-0.499,0.737-0.76,1.095
				c-0.179,0.246-0.366,0.485-0.55,0.726c-0.229,0.3-0.458,0.6-0.695,0.893c-0.229,0.282-0.464,0.557-0.7,0.832
				c-0.197,0.231-0.395,0.462-0.597,0.688c-0.288,0.32-0.581,0.635-0.878,0.944c-0.15,0.158-0.301,0.314-0.454,0.469
				c-0.359,0.363-0.724,0.72-1.095,1.068c-0.082,0.077-0.164,0.153-0.246,0.228c-11.975,11.018-30.121,14.2-45.608,6.623
				l-15.912-7.784c-4.221-2.065-6.949-6.436-6.949-11.136c0-0.43-0.041-0.871-0.116-1.294c-0.088-0.493-0.227-0.965-0.406-1.413
				c12.467-1.379,23.265-9.365,28.136-21.161c2.504-6.061,6.971-10.981,12.579-13.855c8.461-4.336,14.726-11.628,17.751-20.597
				c6.845,2.029,12.775,5.978,17.934,11.942C347.021,378.09,349.227,389.266,345.787,402.35z M258.916,398.34h-5.832
				c-8.14,0-15.408-4.862-18.516-12.387c-3.824-9.258-10.715-16.809-19.403-21.262c-5.227-2.679-9.057-7.246-10.785-12.859
				c-1.727-5.614-1.127-11.545,1.69-16.7c3.788-6.931,11.055-11.236,18.965-11.236c3.644,0,7.268,0.945,10.478,2.735
				c6.249,3.481,13.333,5.322,20.486,5.322c7.153-0.001,14.237-1.841,20.487-5.322c3.211-1.79,6.835-2.735,10.479-2.735
				c7.909,0,15.175,4.305,18.964,11.237c2.817,5.154,3.418,11.085,1.69,16.699c-1.727,5.613-5.558,10.18-10.784,12.859
				c-8.688,4.452-15.579,12.003-19.404,21.263C274.324,393.478,267.056,398.34,258.916,398.34z M187.22,315.505
				c13.87-14.492,30.184-40.753,48.487-78.053c4.12-8.395,11.706-13.407,20.293-13.407c8.587,0,16.173,5.012,20.293,13.407
				c18.302,37.298,34.616,63.558,48.488,78.053c8.147,8.512,14.749,21.346,19.629,38.142c-6.296-5.508-13.441-9.245-21.373-11.189
				c-0.414-4.953-1.856-9.812-4.318-14.316c-6.345-11.608-18.512-18.82-31.753-18.82c-6.122,0-12.199,1.583-17.573,4.577
				c-4.085,2.276-8.716,3.48-13.393,3.48c-4.676,0-9.307-1.203-13.391-3.48c-5.374-2.995-11.451-4.577-17.573-4.577
				c-13.241,0-25.408,7.211-31.753,18.82c-2.462,4.504-3.904,9.364-4.318,14.316c-7.932,1.944-15.077,5.68-21.373,11.188
				C172.471,336.85,179.073,324.017,187.22,315.505z M180.272,427.708c-0.102-0.094-0.205-0.189-0.306-0.284
				c-0.351-0.329-0.695-0.666-1.035-1.009c-0.177-0.18-0.353-0.362-0.527-0.545c-0.272-0.285-0.542-0.573-0.806-0.867
				c-0.232-0.259-0.458-0.523-0.684-0.788c-0.207-0.242-0.414-0.484-0.615-0.732c-0.272-0.336-0.536-0.681-0.798-1.026
				c-0.15-0.198-0.303-0.392-0.45-0.593c-0.307-0.421-0.602-0.852-0.893-1.286c-0.095-0.142-0.195-0.28-0.288-0.423
				c-0.354-0.543-0.695-1.098-1.023-1.66c-0.026-0.045-0.055-0.089-0.082-0.134c-0.361-0.624-0.707-1.26-1.036-1.906
				c-0.198-0.389-0.378-0.772-0.568-1.158c-0.178-0.362-0.359-0.725-0.529-1.084c-0.089-0.188-0.175-0.375-0.262-0.562
				c-0.146-0.314-0.285-0.626-0.425-0.938c-0.155-0.345-0.312-0.69-0.46-1.033c-0.034-0.078-0.07-0.157-0.103-0.236
				c-0.177-0.412-0.343-0.821-0.511-1.23c-0.158-0.386-0.315-0.772-0.464-1.155c-0.005-0.013-0.01-0.026-0.015-0.039
				c-0.163-0.42-0.318-0.837-0.471-1.254c-0.098-0.269-0.193-0.536-0.287-0.803c-0.063-0.179-0.126-0.358-0.187-0.537
				c-0.091-0.267-0.181-0.534-0.268-0.8c-0.111-0.339-0.217-0.676-0.321-1.013c-0.035-0.113-0.071-0.227-0.105-0.34
				c-0.024-0.078-0.045-0.156-0.069-0.234c-0.141-0.476-0.278-0.951-0.405-1.423c-3.541-13.2-1.355-24.465,6.553-33.609
				c5.159-5.965,11.089-9.913,17.934-11.942c-0.106-0.315-0.219-0.628-0.317-0.947c2.894,9.405,9.311,17.056,18.068,21.544
				c5.609,2.874,10.076,7.795,12.579,13.855c4.872,11.796,15.669,19.781,28.134,21.161c-0.336,0.84-0.521,1.754-0.521,2.708
				c0,4.7-2.728,9.071-6.95,11.136l-15.911,7.784C210.375,441.876,192.247,438.705,180.272,427.708z M255.999,459.174
				c-13.281,0-26.008-2.666-36.482-7.381c4.325-0.921,8.601-2.372,12.736-4.395l15.91-7.784c2.987-1.46,5.629-3.449,7.835-5.823
				c2.207,2.372,4.848,4.363,7.833,5.823l15.911,7.784c4.142,2.026,8.424,3.467,12.754,4.388
				C282.019,456.505,269.286,459.174,255.999,459.174z" fill="#323232"/>
			<path d="M118.039,371.089c-0.631-2.362-1.198-4.775-1.688-7.173c-3.901-19.117-13.435-36.329-27.571-49.776
				c-17.628-16.768-27.739-40.339-27.739-64.668v-39.055c0-5.919,0.36-11.784,1.046-17.576c0.011-0.072,0.033-0.141,0.042-0.213
				c2.708-22.319,10.33-43.337,22.152-61.794c0.208-0.325,0.412-0.652,0.623-0.975c0.396-0.608,0.803-1.21,1.208-1.812
				c0.315-0.468,0.629-0.936,0.95-1.4c0.37-0.537,0.747-1.07,1.124-1.602c0.375-0.528,0.753-1.054,1.136-1.578
				c0.353-0.483,0.708-0.965,1.067-1.444c0.434-0.58,0.875-1.155,1.319-1.729c0.328-0.424,0.654-0.849,0.986-1.27
				c0.533-0.674,1.075-1.341,1.62-2.007c0.259-0.316,0.514-0.636,0.775-0.951c0.818-0.982,1.649-1.956,2.494-2.919
				c0.105-0.12,0.214-0.236,0.319-0.355c0.746-0.844,1.502-1.682,2.268-2.51c0.281-0.304,0.569-0.603,0.853-0.905
				c0.601-0.639,1.205-1.275,1.819-1.903c0.333-0.342,0.67-0.679,1.007-1.018c0.581-0.584,1.166-1.165,1.758-1.74
				c0.355-0.346,0.712-0.69,1.071-1.032c0.596-0.568,1.198-1.131,1.805-1.69c0.356-0.328,0.71-0.657,1.07-0.983
				c0.658-0.595,1.325-1.182,1.994-1.766c0.314-0.274,0.624-0.552,0.941-0.824c0.988-0.848,1.986-1.686,2.999-2.511l14.677-11.944
				c0.031-0.025,0.063-0.049,0.094-0.075c0.887-0.72,1.787-1.432,2.697-2.136c0.237-0.183,0.476-0.362,0.714-0.543
				c0.72-0.55,1.445-1.096,2.177-1.634c0.276-0.203,0.552-0.403,0.829-0.603c0.695-0.504,1.395-1.001,2.1-1.494
				c0.31-0.217,0.62-0.434,0.932-0.648c0.655-0.45,1.315-0.892,1.977-1.331c24.096-15.977,52.6-24.658,81.661-24.658h65.305
				c29.071,0,57.584,8.687,81.684,24.674c0.649,0.431,1.296,0.864,1.938,1.305c0.325,0.223,0.648,0.45,0.972,0.675
				c0.69,0.482,1.375,0.969,2.056,1.462c0.288,0.209,0.577,0.417,0.863,0.628c0.722,0.531,1.438,1.07,2.148,1.612
				c0.244,0.186,0.49,0.37,0.733,0.558c0.941,0.728,1.872,1.463,2.788,2.208L396.51,95.91c1.014,0.825,2.013,1.664,3.001,2.513
				c0.314,0.269,0.621,0.544,0.932,0.816c0.673,0.587,1.342,1.176,2.003,1.773c0.358,0.324,0.711,0.652,1.065,0.978
				c0.608,0.561,1.212,1.125,1.81,1.695c0.357,0.341,0.713,0.683,1.066,1.027c0.594,0.578,1.182,1.161,1.766,1.748
				c0.334,0.335,0.668,0.671,0.998,1.009c0.619,0.635,1.229,1.276,1.835,1.921c0.278,0.296,0.56,0.589,0.836,0.887
				c0.78,0.842,1.548,1.693,2.306,2.552c0.093,0.105,0.189,0.208,0.282,0.314c0.848,0.966,1.681,1.943,2.502,2.928
				c0.253,0.304,0.499,0.613,0.749,0.919c0.555,0.677,1.107,1.356,1.649,2.042c0.325,0.412,0.644,0.827,0.964,1.242
				c0.452,0.584,0.901,1.17,1.343,1.761c0.352,0.469,0.7,0.942,1.045,1.415c0.391,0.535,0.777,1.072,1.16,1.612
				c0.371,0.522,0.74,1.045,1.103,1.572c0.329,0.477,0.652,0.957,0.975,1.437c0.398,0.591,0.797,1.181,1.185,1.777
				c0.223,0.343,0.44,0.689,0.66,1.034c11.804,18.446,19.415,39.446,22.121,61.745c0.009,0.07,0.03,0.137,0.04,0.207
				c0.687,5.794,1.047,11.662,1.047,17.583v0.927c0,4.025,3.262,7.287,7.287,7.287c4.025,0,7.287-3.262,7.287-7.287v-0.927
				c0-5.446-0.284-10.85-0.815-16.202c26.09-29.611,52.117-94.274,46.522-134.281c-2.022-14.456-7.939-24.677-17.586-30.38
				c-7.132-4.217-15.783-6.354-25.714-6.354c-35.182,0-79.163,26.809-94.564,36.968c-25.375-15.516-54.777-23.901-84.717-23.901
				h-65.305c-29.939,0-59.341,8.385-84.716,23.901C123.229,50.01,79.248,23.201,44.066,23.201c-9.93,0-18.582,2.137-25.714,6.354
				C8.705,35.257,2.788,45.478,0.766,59.934c-5.596,40.007,20.431,104.669,46.515,134.28c-0.531,5.352-0.815,10.756-0.815,16.203
				v39.055c0,28.302,11.761,55.721,32.269,75.229c11.964,11.38,20.034,25.949,23.336,42.13c0.547,2.681,1.182,5.378,1.887,8.017
				c0.87,3.259,3.816,5.41,7.036,5.41c0.622,0,1.255-0.081,1.885-0.249C116.767,378.971,119.078,374.977,118.039,371.089z
				 M467.934,37.776c7.286,0,13.443,1.455,18.298,4.325c5.636,3.332,9.192,10.012,10.568,19.853
				c4.403,31.477-14.23,82.757-35.226,112.67c-3.429-15.261-9.047-29.866-16.637-43.419c-0.148-0.264-0.297-0.528-0.446-0.792
				c-0.445-0.784-0.893-1.566-1.351-2.343c-0.194-0.329-0.393-0.654-0.59-0.982c-0.705-1.176-1.425-2.344-2.161-3.503
				c-0.35-0.552-0.698-1.104-1.055-1.652c-0.348-0.534-0.703-1.065-1.058-1.595c-0.41-0.613-0.824-1.223-1.242-1.83
				c-0.323-0.469-0.646-0.939-0.974-1.405c-0.607-0.862-1.224-1.718-1.849-2.568c-0.206-0.281-0.411-0.563-0.619-0.843
				c-0.722-0.97-1.457-1.932-2.202-2.886c-0.266-0.342-0.537-0.68-0.806-1.02c-0.604-0.762-1.215-1.518-1.833-2.27
				c-0.259-0.315-0.517-0.63-0.778-0.943c-0.855-1.024-1.72-2.041-2.602-3.045c-0.008-0.009-0.016-0.019-0.024-0.028
				c-0.902-1.026-1.821-2.039-2.751-3.043c-0.251-0.271-0.505-0.539-0.757-0.809c-0.712-0.76-1.432-1.513-2.16-2.26
				c-0.263-0.27-0.525-0.54-0.789-0.809c-1.922-1.946-3.897-3.848-5.925-5.705c-0.288-0.263-0.578-0.523-0.868-0.784
				c-0.762-0.688-1.532-1.37-2.309-2.045c-0.302-0.263-0.603-0.526-0.908-0.787c-1.044-0.894-2.098-1.781-3.168-2.652
				l-14.677-11.944c-1.371-1.116-2.765-2.2-4.169-3.268c-0.133-0.101-0.259-0.207-0.392-0.307
				C403.397,58.469,439.968,37.776,467.934,37.776z M15.2,61.954c1.376-9.842,4.932-16.521,10.568-19.853
				c4.856-2.87,11.012-4.325,18.298-4.325c27.966,0,64.538,20.693,81.461,31.311c-0.133,0.1-0.259,0.206-0.392,0.306
				c-1.405,1.068-2.798,2.153-4.17,3.268l-14.677,11.944c-1.069,0.87-2.121,1.756-3.165,2.649c-0.308,0.263-0.612,0.53-0.917,0.795
				c-0.772,0.671-1.537,1.348-2.295,2.032c-0.294,0.265-0.589,0.529-0.881,0.797c-2.023,1.852-3.994,3.75-5.911,5.691
				c-0.272,0.276-0.542,0.554-0.812,0.832c-0.718,0.738-1.428,1.481-2.131,2.231c-0.26,0.278-0.522,0.554-0.781,0.834
				c-0.924,0.999-1.838,2.006-2.735,3.026c-0.027,0.03-0.052,0.061-0.079,0.092c-0.861,0.981-1.707,1.975-2.542,2.975
				c-0.272,0.325-0.539,0.653-0.808,0.979c-0.606,0.737-1.204,1.478-1.796,2.224c-0.279,0.352-0.56,0.704-0.836,1.058
				c-0.718,0.921-1.426,1.848-2.123,2.784c-0.252,0.338-0.5,0.679-0.75,1.019c-0.598,0.816-1.19,1.636-1.772,2.462
				c-0.341,0.483-0.675,0.97-1.011,1.457c-0.403,0.585-0.801,1.173-1.196,1.763c-0.367,0.548-0.734,1.096-1.094,1.649
				c-0.331,0.508-0.654,1.021-0.979,1.532c-0.783,1.232-1.55,2.474-2.299,3.726c-0.167,0.279-0.337,0.556-0.502,0.836
				c-0.471,0.798-0.931,1.601-1.387,2.406c-0.135,0.238-0.269,0.476-0.402,0.714c-7.601,13.563-13.226,28.181-16.658,43.456
				C29.43,144.712,10.797,93.432,15.2,61.954z" fill="#323232"/>
		</g>
	</g>
</g>
<g>
</g>
<g>
</g>
<g>
</g>
<g>
</g>
<g>
</g>
<g>
</g>
<g>
</g>
<g>
</g>
<g>
</g>
<g>
</g>
<g>
</g>
<g>
</g>
<g>
</g>
<g>
</g>
<g>
</g>
</svg>
