<?xml version="1.0" encoding="iso-8859-1"?>
<!-- Generator: Adobe Illustrator 19.0.0, SVG Export Plug-In . SVG Version: 6.00 Build 0)  -->
<svg version="1.1" id="Layer_1" xmlns="http://www.w3.org/2000/svg" xmlns:xlink="http://www.w3.org/1999/xlink" x="0px" y="0px"
	 viewBox="0 0 512.003 512.003" style="enable-background:new 0 0 512.003 512.003;" xml:space="preserve">
<path style="fill:#FDBF00;" d="M114.177,94.319l14.347-11.676c5.634-4.584,11.565-8.729,17.734-12.426
	c-6.435-4.002-11.189-6.827-11.189-6.827c-9.125-6.292-83.041-55.781-119.863-34.014c-36.059,21.316-1.149,123.679,33.821,160.516
	c3.156,4.46,6.401,8.051,9.712,10.878C61.757,159.33,81.699,120.749,114.177,94.319z"/>
<path style="fill:#FDEA96;" d="M99.018,108.495c-2.319-2.978-4.855-5.942-7.644-8.869C78.752,84.351,45.616,57.455,31.897,65.565
	c-22.645,13.386-0.011,78.481,21.94,100.279c3.14,3.213,6.205,6.017,9.194,8.479C69.293,149.798,81.635,127.131,99.018,108.495z"/>
<path style="fill:#FDBF00;" d="M397.825,94.319l-14.347-11.676c-5.634-4.584-11.565-8.729-17.734-12.426
	c6.435-4.002,11.189-6.827,11.189-6.827c9.125-6.292,83.041-55.781,119.863-34.014c36.059,21.316,1.149,123.679-33.821,160.516
	c-3.156,4.46-6.401,8.051-9.712,10.878C450.245,159.33,430.303,120.749,397.825,94.319z"/>
<path style="fill:#FDEA96;" d="M412.984,108.495c2.319-2.978,4.855-5.942,7.644-8.869c12.621-15.275,45.758-42.17,59.476-34.061
	c22.645,13.386,0.011,78.481-21.94,100.279c-3.14,3.213-6.205,6.017-9.194,8.479C442.709,149.798,430.367,127.131,412.984,108.495z"
	/>
<path style="fill:#FECE00;" d="M405.364,85.402l-15.107-12.294c-28.438-23.142-63.982-35.777-100.647-35.777h-33.609l0,0l0,0
	h-33.609c-36.664,0-72.209,12.635-100.646,35.777l-15.107,12.294c-37.21,30.28-58.809,75.704-58.809,123.678v40.2
	c0,27.216,11.163,53.241,30.883,71.999c13.367,12.714,22.511,29.223,26.199,47.299c8.294,40.647,34.883,75.192,72.053,93.614
	l28.38,14.065c15.959,7.909,33.308,11.864,50.657,11.864s34.698-3.955,50.657-11.864l28.38-14.065
	c37.17-18.422,63.759-52.966,72.053-93.614c3.688-18.075,12.833-34.584,26.199-47.299c19.72-18.758,30.883-44.783,30.883-71.999
	v-40.2C464.173,161.107,442.574,115.682,405.364,85.402z"/>
<path style="fill:#E2B700;" d="M405.364,85.402l-15.107-12.294c-28.438-23.142-63.982-35.777-100.647-35.777h-30.865
	c36.664,0,72.208,12.635,100.646,35.777l15.107,12.294c37.21,30.28,58.809,75.705,58.809,123.678v40.2
	c0,27.216-11.163,53.241-30.883,71.999c-13.367,12.714-22.511,29.223-26.199,47.299c-8.294,40.648-34.883,75.192-72.053,93.614
	l-28.38,14.066c-11.216,5.558-23.118,9.155-35.224,10.807c5.12,0.699,10.276,1.057,15.433,1.057
	c17.349,0,34.698-3.955,50.657-11.864l28.38-14.066c37.17-18.422,63.759-52.966,72.053-93.614
	c3.688-18.075,12.833-34.584,26.199-47.299c19.72-18.758,30.883-44.783,30.883-71.999v-40.2
	C464.173,161.107,442.574,115.682,405.364,85.402z"/>
<path style="fill:#FCA800;" d="M356.371,384.621c1.398-9.628,0.839-19.809-2.091-29.95c-4.745-16.424-11.749-31.83-22.065-42.609
	c-16.39-17.125-34.272-49.273-48.593-78.458c-11.775-23.995-43.467-23.995-55.242,0c-14.321,29.184-32.203,61.333-48.593,78.458
	c-10.317,10.78-17.32,26.185-22.065,42.609c-2.93,10.142-3.489,20.322-2.091,29.951c-3.32,13.386,0.592,27.444,6.945,39.935
	c6.715,13.204,18.637,22.022,32.026,25.316c12.431,13.62,35.268,22.754,61.398,22.754s48.967-9.135,61.398-22.754
	c13.39-3.294,25.311-12.112,32.027-25.316C355.779,412.065,359.691,398.007,356.371,384.621z"/>
<path style="fill:#FEF3CA;" d="M347.278,367.412c-34.25-39.601-91.277,4.281-91.277,4.281s-57.027-43.883-91.277-4.281
	c-15.415,17.824-11.317,39.116-2.148,57.145c6.715,13.204,18.637,22.022,32.027,25.316h-0.001
	c12.431,13.62,35.269,22.754,61.399,22.754s48.968-9.135,61.399-22.754h-0.001c13.389-3.294,25.312-12.112,32.027-25.316
	C358.595,406.528,362.693,385.236,347.278,367.412z"/>
<path style="fill:#EADAA7;" d="M354.867,379.868c-1.408,4.521-3.281,8.951-5.441,13.198c-12.192,23.971-41.533,33.529-65.69,21.711
	l-16.377-8.011c-6.951-3.4-11.358-10.463-11.358-18.2h-0.003c0,7.738-4.407,14.8-11.358,18.2l-16.377,8.011
	c-24.158,11.818-53.499,2.26-65.69-21.711c-2.16-4.247-4.032-8.677-5.441-13.198c-5.723,14.766-1.669,30.709,5.441,44.689
	c12.192,23.972,41.533,33.529,65.69,21.711l16.377-8.011c6.951-3.4,11.358-10.463,11.358-18.201v-0.013l0.003,0.013
	c0,7.738,4.407,14.8,11.358,18.201l16.377,8.011c24.158,11.818,53.499,2.26,65.69-21.711
	C356.536,410.576,360.59,394.634,354.867,379.868z"/>
<path style="fill:#513622;" d="M313.975,333.853L313.975,333.853c-7.917-14.483-26.12-19.74-40.539-11.706l0,0
	c-10.839,6.04-24.032,6.04-34.871,0l0,0c-14.419-8.034-32.622-2.778-40.539,11.706l0,0c-8.02,14.673-2.359,33.072,12.522,40.698l0,0
	c7.49,3.838,13.247,10.294,16.46,18.073c4.215,10.205,14.264,17.386,25.991,17.386h2.881h0.24h2.881
	c11.727,0,21.777-7.181,25.991-17.386c3.213-7.779,8.97-14.235,16.46-18.073l0,0C316.335,366.925,321.996,348.526,313.975,333.853z"
	/>
<path style="fill:#3A2516;" d="M313.975,333.853L313.975,333.853c-7.917-14.484-26.12-19.74-40.539-11.706
	c-0.351,0.196-0.712,0.367-1.068,0.551c4.336,2.623,8.064,6.385,10.671,11.155l0,0c8.02,14.673,2.359,33.072-12.522,40.698l0,0
	c-7.49,3.838-9.137,10.52-12.35,18.298c-1.538,3.725-1.879,10.307-2.262,17.161h0.215h2.881c11.727,0,21.777-7.181,25.991-17.386
	c3.213-7.779,8.97-14.235,16.46-18.073C316.335,366.925,321.996,348.526,313.975,333.853z"/>
<g>
	<circle style="fill:#FCB400;" cx="207.731" cy="70.101" r="12.06"/>
	<circle style="fill:#FCB400;" cx="259.911" cy="70.101" r="12.06"/>
	<circle style="fill:#FCB400;" cx="312.091" cy="70.101" r="12.06"/>
	<circle style="fill:#FCB400;" cx="207.731" cy="139.891" r="12.06"/>
	<circle style="fill:#FCB400;" cx="259.911" cy="139.891" r="12.06"/>
	<circle style="fill:#FCB400;" cx="312.091" cy="139.891" r="12.06"/>
	<circle style="fill:#FCB400;" cx="178.401" cy="102.901" r="12.06"/>
	<circle style="fill:#FCB400;" cx="341.421" cy="102.901" r="12.06"/>
	<circle style="fill:#FCB400;" cx="232.741" cy="102.901" r="12.06"/>
	<circle style="fill:#FCB400;" cx="287.081" cy="102.901" r="12.06"/>
	<circle style="fill:#FCB400;" cx="130.291" cy="306.321" r="12.06"/>
	<circle style="fill:#FCB400;" cx="102.151" cy="265.001" r="12.06"/>
	<circle style="fill:#FCB400;" cx="156.491" cy="265.001" r="12.06"/>
	<circle style="fill:#FCB400;" cx="389.531" cy="306.321" r="12.06"/>
	<circle style="fill:#FCB400;" cx="417.671" cy="265.001" r="12.06"/>
	<circle style="fill:#FCB400;" cx="363.331" cy="265.001" r="12.06"/>
</g>
<g>
	<path style="fill:#513622;" d="M134.709,236.239c0-6.122,4.98-11.103,11.102-11.103s11.102,4.981,11.102,11.103
		c0,4.143,3.358,7.501,7.501,7.501s7.501-3.358,7.501-7.501c0-14.394-11.71-26.104-26.104-26.104s-26.103,11.71-26.103,26.104
		c0,4.143,3.358,7.501,7.501,7.501C131.351,243.74,134.709,240.382,134.709,236.239z"/>
	<path style="fill:#513622;" d="M340.087,236.239c0,4.143,3.358,7.501,7.501,7.501s7.501-3.358,7.501-7.501
		c0-6.122,4.98-11.103,11.102-11.103s11.103,4.981,11.103,11.103c0,4.143,3.358,7.501,7.501,7.501s7.501-3.358,7.501-7.501
		c0-14.394-11.71-26.104-26.104-26.104S340.087,221.845,340.087,236.239z"/>
</g>
<g>
</g>
<g>
</g>
<g>
</g>
<g>
</g>
<g>
</g>
<g>
</g>
<g>
</g>
<g>
</g>
<g>
</g>
<g>
</g>
<g>
</g>
<g>
</g>
<g>
</g>
<g>
</g>
<g>
</g>
</svg>
