<svg id="Capa_1" enable-background="new 0 0 512.005 512.005" height="512" viewBox="0 0 512.005 512.005" width="512" xmlns="http://www.w3.org/2000/svg"><g id="XMLID_71_"><g id="XMLID_777_"><g id="XMLID_132_"><path id="XMLID_156_" d="m483.75 207.457-12.658-18.279c-19.818-28.621-52.031-46.072-86.696-47.144l-133.672-133.673c-9.327-9.326-23.201-11.022-34.528-4.221-11.281 6.776-16.283 19.771-12.447 32.336 10.038 32.873 28.013 62.282 52.114 85.979l-66.691-17.87c-12.736-3.412-25.604 2.055-32.012 13.607-6.382 11.509-4.217 25.264 5.389 34.228 36.533 34.093 85.04 53.689 134.933 54.911-1.645 6.635-2.534 13.566-2.534 20.702 0 .48.029.954.036 1.433h-97.907c-21.371 0-41.908 4.655-61.041 13.835-4.98 2.389-7.079 8.363-4.689 13.342 1.72 3.584 5.296 5.677 9.022 5.677 1.45 0 2.924-.317 4.319-.986 16.41-7.874 34.037-11.867 52.389-11.867h100.573c9.549 37.115 43.298 64.621 83.351 64.621h45.006c-3.693 31.614-16.16 61.174-36.038 85.794v-10.211c0-5.523-4.478-10-10-10s-10 4.477-10 10v66.174c0 5.523 4.478 10 10 10 16.471 0 30.404 11.07 34.754 26.16h-58.238l-23.619-93.583c-1.352-5.355-6.79-8.601-12.144-7.249s-8.601 6.788-7.249 12.143l11.573 45.853c-9.518 4.084-19.378 7.273-29.481 9.529-6.674-5.513-14.635-9.52-23.363-11.485 1.024-6.361 1.234-12.837.627-19.358-3.626-38.849-35.976-69.28-73.648-69.28-20.989 0-40.736 7.776-55.605 21.897-15.156 14.394-23.504 33.786-23.504 54.602 0 13 3.253 25.249 8.969 35.998-32.104-21.839-53.232-58.665-53.232-100.335 0-17.866 3.792-35.067 11.271-51.126 2.331-5.007.163-10.956-4.844-13.287-5.01-2.331-10.957-.163-13.287 4.844-8.719 18.723-13.14 38.765-13.14 59.57 0 10.779 1.218 21.277 3.516 31.37-24.687 5.694-43.155 27.84-43.155 54.232 0 30.695 24.972 55.667 55.666 55.667 18.541 0 35.777-9.426 46.014-24.365 22.571 15.345 49.795 24.333 79.078 24.363.025 0 .049.002.074.002h109.014c5.522 0 10-4.477 10-10 0-9.456-2.358-18.369-6.504-26.196 6.955-1.944 13.79-4.295 20.482-7.033l9.004 35.676c1.121 4.441 5.116 7.553 9.696 7.553h77.435c5.522 0 10-4.477 10-10 0-27.555-19.946-50.539-46.16-55.268v-17.235c32.528-31.558 52.34-73.063 56.408-117.991 28.506-8.075 49.458-34.313 49.458-65.371 0-13.89-4.178-27.266-12.085-38.685zm-411.915 284.548c-19.666 0-35.666-16-35.666-35.667 0-17.39 12.512-31.903 29.004-35.034 7.986 20.76 20.73 39.177 36.902 53.897-6.441 10.252-17.878 16.804-30.24 16.804zm125.241 0c-.05 0-.099-.002-.148-.002-31.358-.04-56.857-25.563-56.857-56.93 0-31.682 25.964-56.499 59.109-56.499 27.456 0 51.059 22.462 53.734 51.138.731 7.84-.135 15.583-2.575 23.014-1 3.046-.479 6.388 1.401 8.985 1.881 2.597 4.894 4.135 8.1 4.135h.017c16.47 0 30.404 11.07 34.753 26.16h-97.534zm25.801-461.369c-1.719-5.629 2.334-8.58 3.616-9.351 1.302-.78 5.871-3.001 10.088 1.218l122.357 122.357c-2.997.796-5.925 1.758-8.785 2.861l-44.134-11.826c-40.092-23.583-69.61-60.942-83.142-105.259zm-46.683 107.163c-4.303-4.015-2.27-8.597-1.543-9.906.735-1.326 3.582-5.533 9.345-3.989l141.966 38.04c-8.443 7.044-15.521 15.668-20.773 25.419-47.534.713-94.274-17.16-128.995-49.564zm251.693 156.29h-46.886c-36.422 0-66.054-29.632-66.054-66.054s29.632-66.054 66.054-66.054c29.387 0 56.919 14.423 73.648 38.583l12.657 18.278c5.579 8.058 8.528 17.498 8.528 27.298.001 26.439-21.509 47.949-47.947 47.949z" fill="#323232"/><path id="XMLID_324_" d="m400.172 209.005c-2.64 0-5.21 1.07-7.08 2.93-1.86 1.86-2.92 4.44-2.92 7.07s1.06 5.21 2.92 7.07c1.87 1.86 4.44 2.93 7.08 2.93 2.63 0 5.2-1.07 7.07-2.93 1.859-1.86 2.93-4.44 2.93-7.07s-1.07-5.21-2.93-7.07c-1.86-1.861-4.44-2.93-7.07-2.93z" fill="#323232"/></g></g><g id="XMLID_70_"><g id="XMLID_72_"><path id="XMLID_145_" d="m103.722 288.454c-2.63 0-5.21-1.07-7.07-2.93-1.859-1.86-2.93-4.44-2.93-7.07s1.07-5.21 2.93-7.07 4.44-2.93 7.07-2.93c2.64 0 5.21 1.07 7.07 2.93 1.859 1.86 2.93 4.44 2.93 7.07s-1.07 5.21-2.93 7.07-4.43 2.93-7.07 2.93z" fill="#323232"/></g></g></g></svg>
