<svg id="Capa_1" enable-background="new 0 0 512 512" height="512" viewBox="0 0 512 512" width="512" xmlns="http://www.w3.org/2000/svg"><g><g><path d="m397.63 413.075h-23.47c-10.146 0-19.462-4.652-25.558-12.763s-7.974-18.353-5.152-28.099l3.292-11.372c.048-.166.175-.606-.201-1.118-.357-.486-.785-.495-.946-.498-33.612-.673-65.344-4.493-89.349-10.758-12.338-3.219-24.574-7.15-36.58-11.745l1.061 43.604c.211 8.684-3.014 16.891-9.082 23.108-6.067 6.217-14.193 9.641-22.88 9.641h-26.369c-9.428 0-18.326-4.128-24.413-11.327s-8.68-16.659-7.114-25.955l6.405-38.021c4.075-24.19-4.665-48.379-23.38-64.707-25.042-21.848-106.71-79.424-107.532-80.003-4.104-2.891-6.49-7.644-6.356-12.662.128-4.81 2.055-47.621 29.968-69.501 9.845-7.718 27.037-15.729 53.035-10.065 43.454 9.468 52.895 34.712 62.024 59.125 5.317 14.217 10.802 28.883 23.293 44.437l287.183 63.819c1.348.299 2.647.783 3.863 1.438l44.746 24.118c5.178 2.791 8.247 8.351 7.849 14.22-.399 5.869-4.191 10.963-9.699 13.029-8.083 3.031-16.981 7.61-26.402 12.458-14.534 7.479-30.595 15.744-47.503 20.116l1.206 26.032c.402 8.683-2.81 17.269-8.812 23.556-6.006 6.287-14.434 9.893-23.127 9.893z" fill="#aee993"/></g><path d="m504.117 293.77-44.746-24.118c-1.216-.655-2.516-1.139-3.863-1.438l-199.508-44.336v124.523c.082.022.164.045.247.066 24.005 6.265 55.736 10.085 89.349 10.758.161.003.589.012.946.498.376.511.249.952.201 1.118l-3.292 11.372c-2.822 9.746-.944 19.988 5.152 28.099s15.412 12.763 25.558 12.763h23.47c8.693 0 17.122-3.606 23.125-9.894 6.002-6.287 9.214-14.874 8.812-23.556l-1.206-26.032c16.909-4.372 32.97-12.637 47.503-20.116 9.421-4.848 18.32-9.427 26.402-12.458 5.508-2.065 9.3-7.16 9.699-13.029.398-5.869-2.671-11.429-7.849-14.22z" fill="#85c782"/><g><path d="m266 179.953-67.726 66.901c-14.655-7.833-29.309-16.793-44.322-26.852-5.604-3.755-7.969-10.809-5.828-17.206 3.315-9.906 9.961-25.111 22.656-40.32 16.379-19.634 42.834-39.24 85.22-47.469z" fill="#8f5041"/></g><g><path d="m318.67 192.646-18.839 89.21c-36.433-5.789-68.984-17.59-101.557-35.002l57.726-76.901z" fill="#773941"/></g><path d="m256 271.491c14.126 4.476 28.638 7.951 43.831 10.365l18.839-89.21-62.67-22.693z" fill="#5f2241"/><g><path d="m450.596 282.069-51.506 3.939-40.75-104.15 21.16-47.73c53.189 35.166 76.102 98.46 84.435 129.077 2.471 9.076-3.96 18.147-13.339 18.864z" fill="#5f2241"/></g><g><path d="m79.815 178.855c7.846 0 15.363-6.899 15-15-.364-8.127-6.591-15-15-15-7.846 0-15.363 6.899-15 15 .364 8.127 6.591 15 15 15z" fill="#404a4a"/></g><g><path d="m399.093 286.004h-44.407c-19.431 0-37.586-1.397-54.854-4.148l8.839-79.21 31.019-6.61 28.649-4.181z" fill="#8f5041"/></g><g><path d="m379.5 134.128-11.16 57.73-59.67 10.79-52.67-32.698v-54.943c10.58-1.52 32.1-4.049 44.57-4.049 31.68 0 57.66 9.11 78.93 23.17z" fill="#773941"/></g></g></svg>