<svg id="Capa_1" enable-background="new 0 0 512 512" height="512" viewBox="0 0 512 512" width="512" xmlns="http://www.w3.org/2000/svg"><g><path d="m504.117 293.77-9.966-5.372c-22.293 4.397-77.884 14.068-135.576 14.068-75.161 0-153.886-26.538-227.667-76.744-4.821-3.28-7.304-9.058-6.366-14.813.267-1.637 4.248-24.771 19.661-53.162-8.902-23.71-19.053-47.731-61.196-56.913-25.999-5.664-43.19 2.347-53.035 10.065-27.912 21.88-29.839 64.692-29.967 69.501-.133 5.018 2.252 9.771 6.356 12.662.822.579 82.49 58.155 107.533 80.003 18.715 16.327 27.455 40.517 23.38 64.707l-6.405 38.021c-1.566 9.296 1.027 18.756 7.114 25.955s14.985 11.327 24.413 11.327h26.369c8.688 0 16.813-3.424 22.88-9.641 6.068-6.217 9.293-14.424 9.082-23.108l-1.061-43.604c12.005 4.595 24.242 8.526 36.58 11.745 24.005 6.265 55.736 10.085 89.349 10.758.161.003.589.012.946.498.376.511.249.952.201 1.118l-3.292 11.372c-2.822 9.746-.944 19.988 5.152 28.099s15.412 12.763 25.558 12.763h23.47c8.693 0 17.122-3.606 23.125-9.894 6.002-6.287 9.214-14.874 8.812-23.556l-1.206-26.032c16.909-4.372 32.97-12.637 47.503-20.116 9.421-4.848 18.32-9.427 26.402-12.458 5.508-2.065 9.3-7.16 9.699-13.029s-2.67-11.429-7.848-14.22zm-424.302-114.915c-8.409 0-14.636-6.873-15-15-.363-8.101 7.154-15 15-15 8.409 0 14.636 6.873 15 15 .363 8.1-7.154 15-15 15z" fill="#323232"/><path d="m332.541 210.872-6.671 59.775c10.974 1.202 21.886 1.82 32.705 1.82 11.405 0 22.786-.412 33.851-1.099l-22.007-67.351z" fill="#323232"/><path d="m156.389 206.644c13.179 8.575 26.496 16.329 39.895 23.272l53.052-71.831 8.552-44.23c-.309.059-.616.119-.923.179-46.723 9.204-84.86 43.143-99.331 88.512-.47 1.47-.883 2.84-1.245 4.098z" fill="#323232"/><path d="m396.081 185.96 27.051 82.786c14.962-1.608 28.628-3.534 40.055-5.358-4.255-16.036-12.488-41.346-26.928-66.838-9.844-17.379-21.105-32.231-33.625-44.486z" fill="#323232"/><path d="m280.122 156.887 41.693 25.438 46.023-8.33 8.28-42.822c-22.526-13.956-48.008-21.142-75.867-21.142-3.806 0-7.5.098-11.12.257z" fill="#323232"/><path d="m302.907 205.931-35.58-21.709-43.422 58.792c24.06 10.356 48.262 18.053 72.3 22.971z" fill="#323232"/></g></svg>
